<svg width="3020" height="1582" viewBox="0 0 3020 1582" fill="none" xmlns="http://www.w3.org/2000/svg">
  <g class="entrance 1">
    <g class="apartment" data-apartment-id="1">
      <g class="room 1">
        <rect x="742" y="1170" width="151" height="82" fill="#9EFF00" fill-opacity="0.5"/>
      </g>
      <g class="room 2">
        <rect width="148" height="266" transform="matrix(-1 0 0 1 979 1252)" fill="#9EFF00" fill-opacity="0.5"/>
      </g>
      <g class="room 3">
        <rect width="134" height="64" transform="matrix(-1 0 0 1 965 1518)" fill="#9EFF00" fill-opacity="0.5"/>
      </g>
      <g class="room 4">
        <rect x="893" y="1103" width="86" height="149" fill="#9EFF00" fill-opacity="0.5"/>
      </g>
      <g class="room 5">
        <rect x="808" y="938" width="171" height="165" fill="#9EFF00" fill-opacity="0.5"/>
        <rect x="808" y="1103" width="85" height="67" fill="#9EFF00" fill-opacity="0.5"/>
      </g>
      <g class="room 6">
        <rect x="670" y="984" width="138" height="186" fill="#9EFF00" fill-opacity="0.5"/>
      </g>
    </g>
    <g class="apartment" data-apartment-id="2">
      <g class="room 1">
        <rect x="640" y="1252" width="50" height="111" fill="#9EFF00" fill-opacity="0.5"/>
        <rect x="690" y="1252" width="25" height="62" fill="#9EFF00" fill-opacity="0.5"/>
      </g>
      <g class="room 2">
        <rect x="553" y="1252" width="87" height="111" fill="#9EFF00" fill-opacity="0.5"/>
      </g>
      <g class="room 3">
        <rect x="553" y="1363" width="137" height="155" fill="#9EFF00" fill-opacity="0.5"/>
      </g>
      <g class="room 4">
        <rect x="690" y="1314" width="141" height="186" fill="#9EFF00" fill-opacity="0.5"/>
        <rect x="715" y="1252" width="116" height="62" fill="#9EFF00" fill-opacity="0.5"/>
      </g>
      <g class="room 5">
        <rect x="690" y="1500" width="141" height="82" fill="#9EFF00" fill-opacity="0.5"/>
      </g>
    </g>
    <g class="apartment" data-apartment-id="3">
      <g class="room 1">
        <rect x="271" y="1252" width="197" height="72" fill="#9EFF00" fill-opacity="0.5"/>
      </g>
      <g class="room 2">
        <rect x="468" y="1252" width="85" height="111" fill="#9EFF00" fill-opacity="0.5"/>
      </g>
      <g class="room 3">
        <rect x="398" y="1363" width="155" height="155" fill="#9EFF00" fill-opacity="0.5"/>
        <rect x="398" y="1324" width="70" height="39" fill="#9EFF00" fill-opacity="0.5"/>
      </g>
      <g class="room 4">
        <rect x="271" y="1324" width="127" height="176" fill="#9EFF00" fill-opacity="0.5"/>
      </g>
      <g class="room 5">
        <rect x="271" y="1500" width="127" height="82" fill="#9EFF00" fill-opacity="0.5"/>
        <rect x="258" y="1518" width="13" height="64" fill="#9EFF00" fill-opacity="0.5"/>
      </g>
      <g class="room 6">
        <rect x="66" y="1338" width="205" height="180" fill="#9EFF00" fill-opacity="0.5"/>
        <rect x="208" y="1252" width="63" height="86" fill="#9EFF00" fill-opacity="0.5"/>
      </g>
    </g>
    <g class="apartment" data-apartment-id="4">
      <g class="room 1">
        <rect x="150" y="1178" width="214" height="74" fill="#9EFF00" fill-opacity="0.5"/>
        <rect x="296" y="1118" width="49" height="60" fill="#9EFF00" fill-opacity="0.5"/>
      </g>
      <g class="room 2">
        <rect x="345" y="1118" width="102" height="60" fill="#9EFF00" fill-opacity="0.5"/>
      </g>
      <g class="room 3">
        <rect x="296" y="938" width="151" height="180" fill="#9EFF00" fill-opacity="0.5"/>
      </g>
      <g class="room 4">
        <rect x="150" y="938" width="146" height="240" fill="#9EFF00" fill-opacity="0.5"/>
      </g>
      <g class="room 5">
        <rect y="1039" width="150" height="230" fill="#9EFF00" fill-opacity="0.5"/>
      </g>
      <g class="room 6">
        <rect y="956" width="150" height="83" fill="#9EFF00" fill-opacity="0.5"/>
      </g>
      <g class="room 7">
        <rect x="66" y="1269" width="142" height="69" fill="#9EFF00" fill-opacity="0.5"/>
        <rect x="150" y="1252" width="58" height="17" fill="#9EFF00" fill-opacity="0.5"/>
      </g>
    </g>
  </g>
  <g class="entrance 2">
    <g class="apartment" data-apartment-id="33">
      <g class="room 1">
        <rect x="1662" y="1149" width="85" height="103" fill="#9EFF00" fill-opacity="0.5"/>
        <rect x="1595" y="1172" width="67" height="80" fill="#9EFF00" fill-opacity="0.5"/>
      </g>
      <g class="room 2">
        <rect x="1684" y="1252" width="156" height="266" fill="#9EFF00" fill-opacity="0.5"/>
      </g>
      <g class="room 3">
        <rect x="1747" y="1196" width="93" height="56" fill="#9EFF00" fill-opacity="0.5"/>
      </g>
      <g class="room 4">
        <rect x="1747" y="1101" width="93" height="95" fill="#9EFF00" fill-opacity="0.5"/>
      </g>
      <g class="room 5">
        <rect x="1662" y="939" width="178" height="162" fill="#9EFF00" fill-opacity="0.5"/>
        <rect x="1662" y="1101" width="85" height="48" fill="#9EFF00" fill-opacity="0.5"/>
      </g>
      <g class="room 6">
        <rect x="1521" y="994" width="141" height="178" fill="#9EFF00" fill-opacity="0.5"/>
        <rect x="1537" y="922" width="125" height="72" fill="#9EFF00" fill-opacity="0.5"/>
      </g>
    </g>
    <g class="apartment" data-apartment-id="34">
      <g class="room 1">
        <rect x="1493" y="1252" width="74" height="62" fill="#9EFF00" fill-opacity="0.5"/>
        <rect x="1493" y="1314" width="49" height="48" fill="#9EFF00" fill-opacity="0.5"/>
      </g>
      <g class="room 2">
        <rect x="1406" y="1252" width="87" height="110" fill="#9EFF00" fill-opacity="0.5"/>
      </g>
      <g class="room 3">
        <rect x="1406" y="1362" width="136" height="156" fill="#9EFF00" fill-opacity="0.5"/>
      </g>
      <g class="room 4">
        <rect x="1567" y="1252" width="117" height="62" fill="#9EFF00" fill-opacity="0.5"/>
        <rect x="1542" y="1314" width="142" height="177" fill="#9EFF00" fill-opacity="0.5"/>
      </g>
      <g class="room 5">
        <rect x="1542" y="1491" width="135" height="91" fill="#9EFF00" fill-opacity="0.5"/>
      </g>
    </g>
    <g class="apartment" data-apartment-id="35">
      <g class="room 1">
        <rect x="1244" y="1252" width="78" height="62" fill="#9EFF00" fill-opacity="0.5"/>
        <rect x="1267" y="1314" width="55" height="48" fill="#9EFF00" fill-opacity="0.5"/>
      </g>
      <g class="room 2">
        <rect x="1322" y="1252" width="84" height="110" fill="#9EFF00" fill-opacity="0.5"/>
      </g>
      <g class="room 3">
        <rect x="1267" y="1362" width="139" height="129" fill="#9EFF00" fill-opacity="0.5"/>
        <rect x="1274" y="1491" width="132" height="27" fill="#9EFF00" fill-opacity="0.5"/>
      </g>
      <g class="room 4">
        <rect x="1125" y="1252" width="119" height="62" fill="#9EFF00" fill-opacity="0.5"/>
        <rect x="1125" y="1314" width="142" height="177" fill="#9EFF00" fill-opacity="0.5"/>
      </g>
      <g class="room 5">
        <rect x="1134" y="1491" width="140" height="91" fill="#9EFF00" fill-opacity="0.5"/>
        <rect x="1125" y="1491" width="9" height="27" fill="#9EFF00" fill-opacity="0.5"/>
      </g>
    </g>
    <g class="apartment" data-apartment-id="36">
      <g class="room 1">
        <rect x="1064" y="1150" width="100" height="102" fill="#9EFF00" fill-opacity="0.5"/>
        <rect x="1164" y="1170" width="62" height="82" fill="#9EFF00" fill-opacity="0.5"/>
      </g>
      <g class="room 2">
        <rect x="979" y="1252" width="146" height="266" fill="#9EFF00" fill-opacity="0.5"/>
      </g>
      <g class="room 3">
        <rect x="979" y="1196" width="85" height="56" fill="#9EFF00" fill-opacity="0.5"/>
      </g>
      <g class="room 4">
        <rect x="979" y="1103" width="85" height="93" fill="#9EFF00" fill-opacity="0.5"/>
      </g>
      <g class="room 5">
        <rect x="979" y="938" width="185" height="165" fill="#9EFF00" fill-opacity="0.5"/>
        <rect x="1064" y="1103" width="100" height="47" fill="#9EFF00" fill-opacity="0.5"/>
      </g>
      <g class="room 6">
        <rect x="1164" y="994" width="131" height="176" fill="#9EFF00" fill-opacity="0.5"/>
        <rect x="1164" y="923" width="125" height="71" fill="#9EFF00" fill-opacity="0.5"/>
      </g>
    </g>
  </g>
  <g class="entrance 3">
    <g class="apartment" data-apartment-id="65">
      <g class="room 1">
        <rect x="2644" y="1094" width="148" height="51" fill="#9EFF00" fill-opacity="0.5"/>
        <rect x="2644" y="1145" width="102" height="107" fill="#9EFF00" fill-opacity="0.5"/>
        <rect x="2691" y="1252" width="55" height="29" fill="#9EFF00" fill-opacity="0.5"/>
      </g>
      <g class="room 2">
        <rect x="2644" y="1011" width="102" height="83" fill="#9EFF00" fill-opacity="0.5"/>
      </g>
      <g class="room 3">
        <rect x="2792" y="1011" width="167" height="134" fill="#9EFF00" fill-opacity="0.5"/>
      </g>
      <g class="room 4">
        <rect x="2746" y="1145" width="213" height="136" fill="#9EFF00" fill-opacity="0.5"/>
      </g>
      <g class="room 5">
        <rect x="2690" y="1281" width="269" height="132" fill="#9EFF00" fill-opacity="0.5"/>
        <rect x="2836" y="1413" width="123" height="26" fill="#9EFF00" fill-opacity="0.5"/>
      </g>
      <g class="room 6">
        <rect x="2746" y="1011" width="46" height="83" fill="#9EFF00" fill-opacity="0.5"/>
      </g>
      <g class="room 7">
        <rect x="2691" y="1413" width="145" height="92" fill="#9EFF00" fill-opacity="0.5"/>
        <rect x="2691" y="1505" width="19" height="13" fill="#9EFF00" fill-opacity="0.5"/>
      </g>
    </g>
    <g class="apartment" data-apartment-id="66">
      <g class="room 1">
        <rect width="79.1103" height="62" transform="matrix(-1 0 0 1 2570.31 1252)" fill="#9EFF00" fill-opacity="0.5"/>
        <rect width="55.7829" height="48" transform="matrix(-1 0 0 1 2546.98 1314)" fill="#9EFF00" fill-opacity="0.5"/>
      </g>
      <g class="room 2">
        <rect width="85.1957" height="110" transform="matrix(-1 0 0 1 2491.2 1252)" fill="#9EFF00" fill-opacity="0.5"/>
      </g>
      <g class="room 3">
        <rect width="140.979" height="129" transform="matrix(-1 0 0 1 2546.98 1362)" fill="#9EFF00" fill-opacity="0.5"/>
        <rect width="133.879" height="27" transform="matrix(-1 0 0 1 2539.88 1491)" fill="#9EFF00" fill-opacity="0.5"/>
      </g>
      <g class="room 4">
        <rect width="120.694" height="62" transform="matrix(-1 0 0 1 2691 1252)" fill="#9EFF00" fill-opacity="0.5"/>
        <rect width="144.021" height="177" transform="matrix(-1 0 0 1 2691 1314)" fill="#9EFF00" fill-opacity="0.5"/>
      </g>
      <g class="room 5">
        <rect width="141.993" height="91" transform="matrix(-1 0 0 1 2681.87 1491)" fill="#9EFF00" fill-opacity="0.5"/>
        <rect width="9.12811" height="27" transform="matrix(-1 0 0 1 2691 1491)" fill="#9EFF00" fill-opacity="0.5"/>
      </g>
    </g>
    <g class="apartment" data-apartment-id="67">
      <g class="room 1">
        <rect x="2244" y="1252" width="78" height="62" fill="#9EFF00" fill-opacity="0.5"/>
        <rect x="2267" y="1314" width="55" height="48" fill="#9EFF00" fill-opacity="0.5"/>
      </g>
      <g class="room 2">
        <rect x="2322" y="1252" width="84" height="110" fill="#9EFF00" fill-opacity="0.5"/>
      </g>
      <g class="room 3">
        <rect x="2267" y="1362" width="139" height="129" fill="#9EFF00" fill-opacity="0.5"/>
        <rect x="2274" y="1491" width="132" height="27" fill="#9EFF00" fill-opacity="0.5"/>
      </g>
      <g class="room 4">
        <rect x="2125" y="1252" width="119" height="62" fill="#9EFF00" fill-opacity="0.5"/>
        <rect x="2125" y="1314" width="142" height="177" fill="#9EFF00" fill-opacity="0.5"/>
      </g>
      <g class="room 5">
        <rect x="2134" y="1491" width="140" height="91" fill="#9EFF00" fill-opacity="0.5"/>
        <rect x="2125" y="1491" width="9" height="27" fill="#9EFF00" fill-opacity="0.5"/>
      </g>
    </g>
    <g class="apartment" data-apartment-id="68">
      <g class="room 1">
        <rect x="1967" y="1252" width="158" height="62" fill="#9EFF00" fill-opacity="0.5"/>
      </g>
      <g class="room 2">
        <rect x="1840" y="1252" width="127" height="84" fill="#9EFF00" fill-opacity="0.5"/>
      </g>
      <g class="room 3">
        <rect x="1840" y="1336" width="127" height="182" fill="#9EFF00" fill-opacity="0.5"/>
      </g>
      <g class="room 4">
        <rect x="1967" y="1314" width="158" height="204" fill="#9EFF00" fill-opacity="0.5"/>
      </g>
    </g>
    <g class="apartment" data-apartment-id="69">
      <g class="room 1">
        <rect x="1963" y="1119" width="83" height="133" fill="#9EFF00" fill-opacity="0.5"/>
        <rect x="2046" y="1119" width="116" height="53" fill="#9EFF00" fill-opacity="0.5"/>
      </g>
      <g class="room 2">
        <rect x="2162" y="988" width="136" height="184" fill="#9EFF00" fill-opacity="0.5"/>
        <rect x="2162" y="922" width="123" height="66" fill="#9EFF00" fill-opacity="0.5"/>
      </g>
      <g class="room 3">
        <rect x="1984" y="939" width="178" height="180" fill="#9EFF00" fill-opacity="0.5"/>
      </g>
      <g class="room 4">
        <rect x="1840" y="939" width="144" height="180" fill="#9EFF00" fill-opacity="0.5"/>
        <rect x="1840" y="1119" width="123" height="48" fill="#9EFF00" fill-opacity="0.5"/>
      </g>
      <g class="room 5">
        <rect x="1840" y="1167" width="123" height="85" fill="#9EFF00" fill-opacity="0.5"/>
      </g>
    </g>
  </g>
  <g class="entrance 4">
    <g class="apartment" data-apartment-id="105">
      <g class="room 1">
        <rect x="2532" y="563" width="86" height="90" fill="#9EFF00" fill-opacity="0.5"/>
      </g>
      <g class="room 2">
        <rect x="2532" y="457" width="86" height="106" fill="#9EFF00" fill-opacity="0.5"/>
      </g>
      <g class="room 3">
        <rect x="2377" y="457" width="155" height="164" fill="#9EFF00" fill-opacity="0.5"/>
      </g>
      <g class="room 4">
        <rect x="2391" y="621" width="141" height="170" fill="#9EFF00" fill-opacity="0.5"/>
        <rect x="2532" y="653" width="86" height="138" fill="#9EFF00" fill-opacity="0.5"/>
      </g>
      <g class="room 5">
        <rect x="2314" y="614" width="63" height="142" fill="#9EFF00" fill-opacity="0.5"/>
        <rect x="2377" y="621" width="14" height="135" fill="#9EFF00" fill-opacity="0.5"/>
      </g>
    </g>
    <g class="apartment" data-apartment-id="106">
      <g class="room 1">
        <rect x="2546" y="32" width="144" height="65" fill="#9EFF00" fill-opacity="0.5"/>
        <rect x="2674" width="16" height="32" fill="#9EFF00" fill-opacity="0.5"/>
        <rect x="2557" y="97" width="133" height="79" fill="#9EFF00" fill-opacity="0.5"/>
        <rect x="2557" y="176" width="72" height="88" fill="#9EFF00" fill-opacity="0.5"/>
        <rect x="2557" y="264" width="61" height="82" fill="#9EFF00" fill-opacity="0.5"/>
        <rect x="2532" y="297" width="25" height="49" fill="#9EFF00" fill-opacity="0.5"/>
      </g>
      <g class="room 2">
        <rect x="2532" y="346" width="86" height="111" fill="#9EFF00" fill-opacity="0.5"/>
      </g>
      <g class="room 3">
        <rect x="2377" y="297" width="155" height="160" fill="#9EFF00" fill-opacity="0.5"/>
      </g>
      <g class="room 4">
        <rect x="2377" y="97" width="180" height="200" fill="#9EFF00" fill-opacity="0.5"/>
      </g>
      <g class="room 5">
        <rect x="2690" width="243" height="183" fill="#9EFF00" fill-opacity="0.5"/>
      </g>
      <g class="room 6">
        <rect x="2629" y="176" width="61" height="88" fill="#9EFF00" fill-opacity="0.5"/>
      </g>
    </g>
    <g class="apartment" data-apartment-id="107">
      <g class="room 1">
        <rect x="2690" y="370.565" width="49.1007" height="111" transform="rotate(-90 2690 370.565)" fill="#9EFF00" fill-opacity="0.5"/>
        <rect x="2690" y="321.464" width="24.5504" height="62" transform="rotate(-90 2690 321.464)" fill="#9EFF00" fill-opacity="0.5"/>
      </g>
      <g class="room 2">
        <rect x="2690" y="456" width="85.4352" height="111" transform="rotate(-90 2690 456)" fill="#9EFF00" fill-opacity="0.5"/>
      </g>
      <g class="room 3">
        <rect x="2801" y="456" width="135" height="155" transform="rotate(-90 2801 456)" fill="#9EFF00" fill-opacity="0.5"/>
      </g>
      <g class="room 4">
        <rect x="2752" y="321" width="138" height="186" transform="rotate(-90 2752 321)" fill="#9EFF00" fill-opacity="0.5"/>
        <rect x="2690" y="296.532" width="113.532" height="62" transform="rotate(-90 2690 296.532)" fill="#9EFF00" fill-opacity="0.5"/>
      </g>
      <g class="room 5">
        <rect x="2938" y="321" width="138" height="82" transform="rotate(-90 2938 321)" fill="#9EFF00" fill-opacity="0.5"/>
      </g>
    </g>
    <g class="apartment" data-apartment-id="108">
      <g class="room 1">
        <rect width="49.8201" height="111" transform="matrix(0 1 1 0 2690 542.687)" fill="#9EFF00" fill-opacity="0.5"/>
        <rect width="24.9101" height="62" transform="matrix(0 1 1 0 2690 592.507)" fill="#9EFF00" fill-opacity="0.5"/>
      </g>
      <g class="room 2">
        <rect width="86.687" height="111" transform="matrix(0 1 1 0 2690 456)" fill="#9EFF00" fill-opacity="0.5"/>
      </g>
      <g class="room 3">
        <rect width="136.507" height="155" transform="matrix(0 1 1 0 2801 456)" fill="#9EFF00" fill-opacity="0.5"/>
      </g>
      <g class="room 4">
        <rect width="140.493" height="186" transform="matrix(0 1 1 0 2752 592.507)" fill="#9EFF00" fill-opacity="0.5"/>
        <rect width="115.583" height="62" transform="matrix(0 1 1 0 2690 617.417)" fill="#9EFF00" fill-opacity="0.5"/>
      </g>
      <g class="room 5">
        <rect width="140.493" height="82" transform="matrix(0 1 1 0 2938 592.507)" fill="#9EFF00" fill-opacity="0.5"/>
      </g>
    </g>
    <g class="apartment" data-apartment-id="109">
      <g class="room 1">
        <rect x="2690" y="924" width="50" height="111" transform="rotate(-90 2690 924)" fill="#9EFF00" fill-opacity="0.5"/>
        <rect x="2690" y="874" width="25" height="62" transform="rotate(-90 2690 874)" fill="#9EFF00" fill-opacity="0.5"/>
      </g>
      <g class="room 2">
        <rect x="2690" y="1011" width="87" height="111" transform="rotate(-90 2690 1011)" fill="#9EFF00" fill-opacity="0.5"/>
      </g>
      <g class="room 3">
        <rect x="2801" y="1011" width="137" height="158" transform="rotate(-90 2801 1011)" fill="#9EFF00" fill-opacity="0.5"/>
      </g>
      <g class="room 4">
        <rect x="2752" y="874" width="141" height="186" transform="rotate(-90 2752 874)" fill="#9EFF00" fill-opacity="0.5"/>
        <rect x="2690" y="849" width="116" height="62" transform="rotate(-90 2690 849)" fill="#9EFF00" fill-opacity="0.5"/>
      </g>
      <g class="room 5">
        <rect x="2938" y="874" width="141" height="82" transform="rotate(-90 2938 874)" fill="#9EFF00" fill-opacity="0.5"/>
      </g>
    </g>
  </g>
</svg>