<svg class="round-bti__foreground-svg" viewBox="0 0 1583 3014" fill="none" xmlns="http://www.w3.org/2000/svg">
  <g>
    <g class="entrance 1">
      <g class="apartment" data-apartment-id="29">
        <rect width="147" height="266" transform="matrix(-1 0 0 1 975 1252)" fill="#9EFF00" fill-opacity="0.5"/>
        <rect width="135" height="65" transform="matrix(-1 0 0 1 963 1518)" fill="#9EFF00" fill-opacity="0.5"/>
        <rect x="806" y="939" width="169" height="162" fill="#9EFF00" fill-opacity="0.5"/>
        <rect x="806" y="1101" width="85" height="50" fill="#9EFF00" fill-opacity="0.5"/>
        <rect x="891" y="1101" width="84" height="95" fill="#9EFF00" fill-opacity="0.5"/>
        <rect x="891" y="1196" width="84" height="56" fill="#9EFF00" fill-opacity="0.5"/>
        <rect x="806" y="1151" width="85" height="101" fill="#9EFF00" fill-opacity="0.5"/>
        <rect x="742" y="1171" width="64" height="81" fill="#9EFF00" fill-opacity="0.5"/>
        <rect x="661" y="985" width="145" height="186" fill="#9EFF00" fill-opacity="0.5"/>
        <rect x="780" y="939" width="26" height="46" fill="#9EFF00" fill-opacity="0.5"/>
      </g>
      <g class="apartment" data-apartment-id="30">
        <rect x="553" y="1362" width="132" height="156" fill="#9EFF00" fill-opacity="0.5"/>
        <rect x="553" y="1252" width="84" height="110" fill="#9EFF00" fill-opacity="0.5"/>
        <rect x="685" y="1315" width="143" height="203" fill="#9EFF00" fill-opacity="0.5"/>
        <rect x="693" y="1518" width="135" height="65" fill="#9EFF00" fill-opacity="0.5"/>
        <rect x="713" y="1252" width="115" height="63" fill="#9EFF00" fill-opacity="0.5"/>
        <rect x="637" y="1252" width="48" height="110" fill="#9EFF00" fill-opacity="0.5"/>
        <rect x="685" y="1252" width="28" height="63" fill="#9EFF00" fill-opacity="0.5"/>
      </g>
      <g class="apartment" data-apartment-id="31">
        <path d="M0 1417V1582H133H266V1542V1502H173.9H81.8L82.5 1377L83.3 1252H41.6H0V1417Z" fill="#9EFF00" fill-opacity="0.5"/>
        <path d="M207.449 1336.19C166.266 1336.92 124.821 1335.29 83.6645 1336.32C82.7015 1394.52 83.0871 1425.22 83.0281 1502C144.019 1502 205.009 1502 266 1502C266 1418.67 266 1335.33 266 1252C246.483 1252 226.966 1252 207.449 1252C207.449 1280.06 207.449 1308.13 207.449 1336.19Z" fill="#9EFF00" fill-opacity="0.5"/>
        <path d="M266 1582C310 1582 354 1582 398 1582C398 1495.67 398 1409.33 398 1323C354 1323 310 1323 266 1323C266 1409.33 266 1495.67 266 1582Z" fill="#9EFF00" fill-opacity="0.5"/>
        <path d="M266 1323C333.333 1323 400.667 1323 468 1323C468 1299.33 468 1275.67 468 1252C400.667 1252 333.333 1252 266 1252C266 1275.67 266 1299.33 266 1323Z" fill="#9EFF00" fill-opacity="0.5"/>
        <path d="M397 1518C449 1518 501 1518 553 1518C553 1466.09 553 1414.17 553 1362.26C524.529 1362.26 496.058 1362.26 467.587 1362.26C467.587 1349.17 467.587 1336.09 467.587 1323C444.058 1323 420.529 1323 397 1323C397 1388 397 1453 397 1518Z" fill="#9EFF00" fill-opacity="0.5"/>
        <path fill-rule="evenodd" clip-rule="evenodd" d="M468 1252H553V1362H468V1252Z" fill="#9EFF00" fill-opacity="0.5"/>
      </g>
      <g class="apartment" data-apartment-id="32">
        <rect y="958" width="151" height="294" fill="#9EFF00" fill-opacity="0.5"/>
        <rect x="151" y="938" width="144" height="242" fill="#9EFF00" fill-opacity="0.5"/>
        <rect x="129" y="938" width="22" height="20" fill="#9EFF00" fill-opacity="0.5"/>
        <rect x="83" y="1252" width="124" height="84" fill="#9EFF00" fill-opacity="0.5"/>
        <rect x="151" y="1180" width="213" height="72" fill="#9EFF00" fill-opacity="0.5"/>
        <rect x="342" y="1120" width="93" height="60" fill="#9EFF00" fill-opacity="0.5"/>
        <rect x="295" y="938" width="140" height="182" fill="#9EFF00" fill-opacity="0.5"/>
        <rect x="295" y="1120" width="47" height="60" fill="#9EFF00" fill-opacity="0.5"/>
      </g>
    </g>
    <g class="entrance 2">
      <g class="apartment" data-apartment-id="61">
        <rect width="162" height="266" transform="matrix(-1 0 0 1 1841 1252)" fill="#9EFF00" fill-opacity="0.5"/>
        <rect width="188" height="164" transform="matrix(-1 0 0 1 1841 939)" fill="#9EFF00" fill-opacity="0.5"/>
        <rect width="99" height="48" transform="matrix(-1 0 0 1 1752 1103)" fill="#9EFF00" fill-opacity="0.5"/>
        <rect width="89" height="93" transform="matrix(-1 0 0 1 1841 1103)" fill="#9EFF00" fill-opacity="0.5"/>
        <rect width="89" height="56" transform="matrix(-1 0 0 1 1841 1196)" fill="#9EFF00" fill-opacity="0.5"/>
        <rect width="99" height="102" transform="matrix(-1 0 0 1 1752 1150)" fill="#9EFF00" fill-opacity="0.5"/>
        <rect width="60" height="80" transform="matrix(-1 0 0 1 1653 1172)" fill="#9EFF00" fill-opacity="0.5"/>
        <rect width="130" height="177" transform="matrix(-1 0 0 1 1653 995)" fill="#9EFF00" fill-opacity="0.5"/>
        <rect width="114" height="72" transform="matrix(-1 0 0 1 1645 923)" fill="#9EFF00" fill-opacity="0.5"/>
        <rect width="8" height="56" transform="matrix(-1 0 0 1 1653 939)" fill="#9EFF00" fill-opacity="0.5"/>
      </g>
      <g class="apartment" data-apartment-id="62">
        <rect width="117.447" height="62" transform="matrix(-1 0 0 1 1679 1252)" fill="#9EFF00" fill-opacity="0.5"/>
        <rect width="138" height="204" transform="matrix(-1 0 0 1 1679 1314)" fill="#9EFF00" fill-opacity="0.5"/>
        <rect width="132" height="62" transform="matrix(-1 0 0 1 1673 1518)" fill="#9EFF00" fill-opacity="0.5"/>
        <rect width="74.383" height="62" transform="matrix(-1 0 0 1 1561.55 1252)" fill="#9EFF00" fill-opacity="0.5"/>
        <rect width="53.8298" height="50" transform="matrix(-1 0 0 1 1541 1314)" fill="#9EFF00" fill-opacity="0.5"/>
        <rect width="84" height="112" transform="matrix(-1 0 0 1 1487 1252)" fill="#9EFF00" fill-opacity="0.5"/>
        <rect width="138" height="154" transform="matrix(-1 0 0 1 1541 1364)" fill="#9EFF00" fill-opacity="0.5"/>
        <rect width="124.298" height="62" transform="matrix(-1 0 0 1 1541 1518)" fill="#9EFF00" fill-opacity="0.5"/>
      </g>
      <g class="apartment" data-apartment-id="63">
        <rect x="1121" y="1252" width="120" height="62" fill="#9EFF00" fill-opacity="0.5"/>
        <rect x="1121" y="1314" width="141" height="204" fill="#9EFF00" fill-opacity="0.5"/>
        <rect x="1130" y="1518" width="132" height="62" fill="#9EFF00" fill-opacity="0.5"/>
        <rect x="1241" y="1252" width="76" height="62" fill="#9EFF00" fill-opacity="0.5"/>
        <rect x="1262" y="1314" width="55" height="50" fill="#9EFF00" fill-opacity="0.5"/>
        <rect x="1317" y="1252" width="86" height="112" fill="#9EFF00" fill-opacity="0.5"/>
        <rect x="1262" y="1364" width="141" height="154" fill="#9EFF00" fill-opacity="0.5"/>
        <rect x="1262" y="1518" width="127" height="62" fill="#9EFF00" fill-opacity="0.5"/>
      </g>
      <g class="apartment" data-apartment-id="64">
        <rect x="975" y="1252" width="146" height="266" fill="#9EFF00" fill-opacity="0.5"/>
        <rect x="975" y="939" width="188" height="164" fill="#9EFF00" fill-opacity="0.5"/>
        <rect x="1064" y="1103" width="99" height="48" fill="#9EFF00" fill-opacity="0.5"/>
        <rect x="975" y="1103" width="89" height="93" fill="#9EFF00" fill-opacity="0.5"/>
        <rect x="975" y="1196" width="89" height="56" fill="#9EFF00" fill-opacity="0.5"/>
        <rect x="1064" y="1150" width="99" height="102" fill="#9EFF00" fill-opacity="0.5"/>
        <rect x="1163" y="1172" width="60" height="80" fill="#9EFF00" fill-opacity="0.5"/>
        <rect x="1163" y="995" width="130" height="177" fill="#9EFF00" fill-opacity="0.5"/>
        <rect x="1171" y="923" width="114" height="72" fill="#9EFF00" fill-opacity="0.5"/>
        <rect x="1163" y="939" width="8" height="56" fill="#9EFF00" fill-opacity="0.5"/>
      </g>
    </g>
    <g class="entrance 3">
      <g class="apartment" data-apartment-id="100">
        <rect x="2637" y="1009" width="102" height="86" fill="#9EFF00" fill-opacity="0.5"/>
        <rect x="2739" y="1009" width="48" height="86" fill="#9EFF00" fill-opacity="0.5"/>
        <rect x="2787" y="1009" width="164" height="134" fill="#9EFF00" fill-opacity="0.5"/>
        <rect x="2739" y="1143" width="275" height="139" fill="#9EFF00" fill-opacity="0.5"/>
        <rect x="2637" y="1095" width="150" height="48" fill="#9EFF00" fill-opacity="0.5"/>
        <rect x="2637" y="1143" width="102" height="111" fill="#9EFF00" fill-opacity="0.5"/>
        <rect x="2682" y="1254" width="57" height="28" fill="#9EFF00" fill-opacity="0.5"/>
        <rect x="2682" y="1282" width="251" height="139" fill="#9EFF00" fill-opacity="0.5"/>
        <rect x="2682" y="1421" width="332" height="81" fill="#9EFF00" fill-opacity="0.5"/>
        <rect x="2933" y="1282" width="81" height="139" fill="#9EFF00" fill-opacity="0.5"/>
      </g>
      <g class="apartment" data-apartment-id="101">
        <rect x="2403" y="1364" width="136" height="156" fill="#9EFF00" fill-opacity="0.5"/>
        <rect x="2403" y="1254" width="88" height="110" fill="#9EFF00" fill-opacity="0.5"/>
        <rect x="2539" y="1317" width="143" height="203" fill="#9EFF00" fill-opacity="0.5"/>
        <rect x="2534" y="1520" width="142" height="62" fill="#9EFF00" fill-opacity="0.5"/>
        <rect x="2567" y="1254" width="115" height="63" fill="#9EFF00" fill-opacity="0.5"/>
        <rect x="2491" y="1254" width="48" height="110" fill="#9EFF00" fill-opacity="0.5"/>
        <rect x="2539" y="1254" width="28" height="63" fill="#9EFF00" fill-opacity="0.5"/>
      </g>
      <g class="apartment" data-apartment-id="102">
        <rect width="136" height="156" transform="matrix(-1 0 0 1 2403 1364)" fill="#9EFF00" fill-opacity="0.5"/>
        <rect width="88" height="110" transform="matrix(-1 0 0 1 2403 1254)" fill="#9EFF00" fill-opacity="0.5"/>
        <rect width="143" height="203" transform="matrix(-1 0 0 1 2267 1317)" fill="#9EFF00" fill-opacity="0.5"/>
        <rect width="142" height="62" transform="matrix(-1 0 0 1 2272 1520)" fill="#9EFF00" fill-opacity="0.5"/>
        <rect width="115" height="63" transform="matrix(-1 0 0 1 2239 1254)" fill="#9EFF00" fill-opacity="0.5"/>
        <rect width="48" height="110" transform="matrix(-1 0 0 1 2315 1254)" fill="#9EFF00" fill-opacity="0.5"/>
        <rect width="28" height="63" transform="matrix(-1 0 0 1 2267 1254)" fill="#9EFF00" fill-opacity="0.5"/>
      </g>
      <g class="apartment" data-apartment-id="103">
        <rect x="1841" y="1338" width="126" height="180" fill="#9EFF00" fill-opacity="0.5"/>
        <rect x="1962.43" y="1305.18" width="44.9817" height="46.7021" transform="rotate(45 1962.43 1305.18)" fill="#9EFF00" fill-opacity="0.5"/>
        <rect x="1841" y="1254" width="88" height="84.0161" fill="#9EFF00" fill-opacity="0.5"/>
        <rect x="1929" y="1254" width="33" height="51.7774" fill="#9EFF00" fill-opacity="0.5"/>
        <rect width="46.5719" height="25.7019" transform="matrix(0.715309 -0.698808 0.715309 0.698808 1911 1320.74)" fill="#9EFF00" fill-opacity="0.5"/>
        <rect x="1967" y="1364" width="157" height="154" fill="#9EFF00" fill-opacity="0.5"/>
        <rect x="2017" y="1314" width="107" height="50" fill="#9EFF00" fill-opacity="0.5"/>
        <rect x="1967" y="1363.8" width="70.4264" height="35.6396" transform="rotate(-45 1967 1363.8)" fill="#9EFF00" fill-opacity="0.5"/>
        <rect x="1995.02" y="1272" width="45.1939" height="46.7021" transform="rotate(45 1995.02 1272)" fill="#9EFF00" fill-opacity="0.5"/>
        <rect x="1971" y="1254" width="153" height="60" fill="#9EFF00" fill-opacity="0.5"/>
        <rect x="1962" y="1254" width="9" height="51" fill="#9EFF00" fill-opacity="0.5"/>
      </g>
      <g class="apartment" data-apartment-id="104">
        <rect x="1841" y="1167" width="118" height="87" fill="#9EFF00" fill-opacity="0.5"/>
        <rect x="1841" y="939" width="138" height="180" fill="#9EFF00" fill-opacity="0.5"/>
        <rect x="1841" y="1119" width="118" height="48" fill="#9EFF00" fill-opacity="0.5"/>
        <rect x="1979" y="939" width="176" height="180" fill="#9EFF00" fill-opacity="0.5"/>
        <rect x="1959" y="1119" width="86" height="135" fill="#9EFF00" fill-opacity="0.5"/>
        <rect x="2045" y="1119" width="110" height="56" fill="#9EFF00" fill-opacity="0.5"/>
        <rect x="2155" y="1015" width="136" height="160" fill="#9EFF00" fill-opacity="0.5"/>
        <rect x="2167" y="923" width="113" height="92" fill="#9EFF00" fill-opacity="0.5"/>
        <rect x="2155" y="939" width="12" height="76" fill="#9EFF00" fill-opacity="0.5"/>
      </g>
    </g>
    <g class="entrance 4">
      <g class="apartment" data-apartment-id="140">
        <rect x="2527" y="656" width="79" height="139" fill="#9EFF00" fill-opacity="0.5"/>
        <rect x="2388" y="623" width="139" height="172" fill="#9EFF00" fill-opacity="0.5"/>
        <rect x="2308" y="615" width="80" height="145" fill="#9EFF00" fill-opacity="0.5"/>
        <rect x="2527" y="461" width="79" height="105" fill="#9EFF00" fill-opacity="0.5"/>
        <rect x="2370" y="461" width="157" height="154" fill="#9EFF00" fill-opacity="0.5"/>
        <rect x="2388" y="615" width="139" height="8" fill="#9EFF00" fill-opacity="0.5"/>
        <rect x="2527" y="566" width="79" height="90" fill="#9EFF00" fill-opacity="0.5"/>
      </g>
      <g class="apartment" data-apartment-id="141">
        <rect x="2685" width="242" height="179" fill="#9EFF00" fill-opacity="0.5"/>
        <rect x="2625" y="179" width="60" height="77" fill="#9EFF00" fill-opacity="0.5"/>
        <rect x="2370" y="302" width="156" height="159" fill="#9EFF00" fill-opacity="0.5"/>
        <rect x="2526" y="346" width="80" height="115" fill="#9EFF00" fill-opacity="0.5"/>
        <rect x="2370" y="99" width="183" height="203" fill="#9EFF00" fill-opacity="0.5"/>
        <rect x="2526" y="302" width="80" height="44" fill="#9EFF00" fill-opacity="0.5"/>
        <rect x="2553" y="256" width="53" height="46" fill="#9EFF00" fill-opacity="0.5"/>
        <rect x="2553" y="179" width="72" height="77" fill="#9EFF00" fill-opacity="0.5"/>
        <rect x="2540" y="35" width="145" height="64" fill="#9EFF00" fill-opacity="0.5"/>
        <rect x="2553" y="99" width="132" height="80" fill="#9EFF00" fill-opacity="0.5"/>
      </g>
      <g class="apartment" data-apartment-id="142">
        <rect x="2795" y="458" width="136" height="156" transform="rotate(-90 2795 458)" fill="#9EFF00" fill-opacity="0.5"/>
        <rect x="2685" y="458" width="88" height="110" transform="rotate(-90 2685 458)" fill="#9EFF00" fill-opacity="0.5"/>
        <rect x="2748" y="322" width="143" height="203" transform="rotate(-90 2748 322)" fill="#9EFF00" fill-opacity="0.5"/>
        <rect x="2951" y="327" width="142" height="62" transform="rotate(-90 2951 327)" fill="#9EFF00" fill-opacity="0.5"/>
        <rect x="2685" y="294" width="115" height="63" transform="rotate(-90 2685 294)" fill="#9EFF00" fill-opacity="0.5"/>
        <rect x="2685" y="370" width="48" height="110" transform="rotate(-90 2685 370)" fill="#9EFF00" fill-opacity="0.5"/>
        <rect x="2685" y="322" width="28" height="63" transform="rotate(-90 2685 322)" fill="#9EFF00" fill-opacity="0.5"/>
      </g>
      <g class="apartment" data-apartment-id="143">
        <rect width="133.563" height="156" transform="matrix(0 1 1 0 2795 458)" fill="#9EFF00" fill-opacity="0.5"/>
        <rect width="86.4229" height="110" transform="matrix(0 1 1 0 2685 458)" fill="#9EFF00" fill-opacity="0.5"/>
        <rect width="142" height="203" transform="matrix(0 1 1 0 2748 592)" fill="#9EFF00" fill-opacity="0.5"/>
        <rect width="137" height="62" transform="matrix(0 1 1 0 2951 597)" fill="#9EFF00" fill-opacity="0.5"/>
        <rect width="115" height="63" transform="matrix(0 1 1 0 2685 619)" fill="#9EFF00" fill-opacity="0.5"/>
        <rect width="47.1398" height="110" transform="matrix(0 1 1 0 2685 544.423)" fill="#9EFF00" fill-opacity="0.5"/>
        <rect width="27.4982" height="63" transform="matrix(0 1 1 0 2685 591.563)" fill="#9EFF00" fill-opacity="0.5"/>
      </g>
      <g class="apartment" data-apartment-id="144">
        <rect x="2795" y="1009" width="133.079" height="156" transform="rotate(-90 2795 1009)" fill="#9EFF00" fill-opacity="0.5"/>
        <rect x="2685" y="1009" width="86.1098" height="110" transform="rotate(-90 2685 1009)" fill="#9EFF00" fill-opacity="0.5"/>
        <rect x="2748" y="875.486" width="141.486" height="203" transform="rotate(-90 2748 875.486)" fill="#9EFF00" fill-opacity="0.5"/>
        <rect x="2951" y="870.504" width="136.504" height="62" transform="rotate(-90 2951 870.504)" fill="#9EFF00" fill-opacity="0.5"/>
        <rect x="2685" y="848.583" width="114.583" height="63" transform="rotate(-90 2685 848.583)" fill="#9EFF00" fill-opacity="0.5"/>
        <rect x="2685" y="922.89" width="46.969" height="110" transform="rotate(-90 2685 922.89)" fill="#9EFF00" fill-opacity="0.5"/>
        <rect x="2685" y="875.921" width="27.3986" height="63" transform="rotate(-90 2685 875.921)" fill="#9EFF00" fill-opacity="0.5"/>
      </g>
    </g>
  </g>
</svg>